<svg width="410" height="56" viewBox="0 0 410 56" fill="none" xmlns="http://www.w3.org/2000/svg">
<rect width="409.956" height="56" fill="white"/>
<path d="M376.533 19C370.161 19 364.978 23.9347 364.978 30.0001C364.978 36.0656 370.161 41.0002 376.533 41.0002C382.904 41.0002 388.087 36.0656 388.087 30.0001C388.087 23.9347 382.904 19 376.533 19ZM376.533 38.8002C371.436 38.8002 367.289 34.8523 367.289 30.0001C367.289 25.148 371.436 21.2 376.533 21.2C381.629 21.2 385.776 25.148 385.776 30.0001C385.776 34.8523 381.629 38.8002 376.533 38.8002Z" fill="black"/>
<path d="M379.8 33.1112C379.162 33.7199 378.351 34.1369 377.466 34.3102C376.85 34.4279 376.215 34.4279 375.599 34.3102C375.303 34.2516 375.013 34.1661 374.733 34.055C374.459 33.9435 374.197 33.808 373.949 33.6502C373.458 33.3313 373.034 32.9276 372.699 32.46L370.783 33.6887C371.031 34.0396 371.317 34.3696 371.63 34.6666C372.273 35.2807 373.037 35.768 373.878 36.1006C374.719 36.4332 375.621 36.6045 376.531 36.6047C377.442 36.6049 378.344 36.434 379.185 36.1018C380.027 35.7696 380.791 35.2826 381.434 34.6688C381.748 34.3707 382.035 34.0407 382.282 33.6887L380.366 32.46C380.201 32.6921 380.012 32.911 379.8 33.1112Z" fill="black"/>
<path d="M372.488 30.0001C373.446 30.0001 374.222 29.2614 374.222 28.35C374.222 27.4387 373.446 26.7 372.488 26.7C371.531 26.7 370.755 27.4387 370.755 28.35C370.755 29.2614 371.531 30.0001 372.488 30.0001Z" fill="black"/>
<path d="M380.577 27.8005C378.266 27.8005 377.688 30.0002 377.688 30.0002H383.465C383.465 30.0002 382.886 27.8005 380.577 27.8005Z" fill="black"/>
<path d="M28.8325 24.992H24.8285V20.736H39.3605V24.992H35.3565V40H28.8325V24.992ZM41.9967 20.736H48.2967V28.408H54.2607V20.736H60.5887V40H54.2607V32.44H48.2967V40H41.9967V20.736ZM67.8671 20.736H76.3791L81.9511 40H75.3711L74.6431 36.304H69.6591L68.8471 40H62.5471L67.8671 20.736ZM73.9711 32.86L72.1511 24.432L70.2471 32.86H73.9711ZM83.8053 20.736H89.4333L97.1053 31.124V20.736H102.117V40H96.5173L88.7893 29.976V40H83.8053V20.736ZM105.762 20.736H112.258V28.604H114.274L117.998 20.736H124.466V21.996L120.042 30.284L125.11 38.74V40H118.306L114.162 32.356H112.258V40H105.762V20.736ZM133.191 40.448C130.559 40.448 128.338 39.9627 126.527 38.992L127.927 34.652C129.85 35.3427 131.567 35.688 133.079 35.688C133.9 35.688 134.498 35.5947 134.871 35.408C135.263 35.2027 135.459 34.904 135.459 34.512C135.459 34.2507 135.356 34.0267 135.151 33.84C134.946 33.6347 134.535 33.4107 133.919 33.168C133.303 32.9253 132.379 32.6267 131.147 32.272C129.635 31.824 128.459 31.096 127.619 30.088C126.779 29.0613 126.359 27.8853 126.359 26.56C126.359 24.5067 127.031 22.9573 128.375 21.912C129.738 20.848 131.567 20.316 133.863 20.316C135.058 20.316 136.234 20.4467 137.391 20.708C138.548 20.9507 139.575 21.3147 140.471 21.8L138.959 26.028C137.914 25.6733 136.999 25.4213 136.215 25.272C135.45 25.104 134.703 25.02 133.975 25.02C132.743 25.02 132.127 25.356 132.127 26.028C132.127 26.364 132.323 26.6533 132.715 26.896C133.126 27.12 133.956 27.4093 135.207 27.764C137.167 28.2867 138.651 29.0893 139.659 30.172C140.667 31.236 141.171 32.5147 141.171 34.008C141.171 36.08 140.499 37.676 139.155 38.796C137.811 39.8973 135.823 40.448 133.191 40.448ZM149.02 20.736H162.292V24.992H155.04V28.884H161.76V32.412H155.04V40H149.02V20.736ZM174.341 40.448C172.325 40.448 170.533 40.0187 168.965 39.16C167.416 38.3013 166.202 37.116 165.325 35.604C164.466 34.0733 164.037 32.3373 164.037 30.396C164.037 28.436 164.466 26.6907 165.325 25.16C166.202 23.6293 167.416 22.444 168.965 21.604C170.533 20.7453 172.325 20.316 174.341 20.316C176.357 20.316 178.14 20.7453 179.689 21.604C181.257 22.444 182.47 23.6293 183.329 25.16C184.206 26.672 184.645 28.4173 184.645 30.396C184.645 32.3373 184.206 34.0733 183.329 35.604C182.47 37.116 181.257 38.3013 179.689 39.16C178.121 40.0187 176.338 40.448 174.341 40.448ZM174.341 35.352C175.517 35.352 176.478 34.8947 177.225 33.98C177.99 33.0653 178.373 31.8613 178.373 30.368C178.373 29.3787 178.196 28.5013 177.841 27.736C177.505 26.952 177.029 26.3453 176.413 25.916C175.797 25.468 175.097 25.244 174.313 25.244C173.548 25.244 172.857 25.468 172.241 25.916C171.625 26.3453 171.149 26.952 170.813 27.736C170.477 28.5013 170.309 29.3787 170.309 30.368C170.309 31.8613 170.682 33.0653 171.429 33.98C172.176 34.8947 173.146 35.352 174.341 35.352ZM201.917 40.448C198.407 40.448 196.261 38.824 195.477 35.576L194.777 32.692H193.461V40H187.329V20.736H195.813C197.418 20.736 198.827 20.9787 200.041 21.464C201.273 21.9307 202.225 22.5933 202.897 23.452C203.569 24.3107 203.905 25.3 203.905 26.42C203.905 27.6707 203.597 28.7253 202.981 29.584C202.383 30.424 201.45 31.1147 200.181 31.656C200.311 32.3653 200.461 33.0093 200.629 33.588C200.853 34.2973 201.161 34.792 201.553 35.072C201.945 35.352 202.514 35.492 203.261 35.492C203.522 35.492 203.933 35.4547 204.493 35.38V39.944C203.615 40.28 202.757 40.448 201.917 40.448ZM194.525 28.772C195.906 28.772 196.877 28.6227 197.437 28.324C198.015 28.0067 198.305 27.4747 198.305 26.728C198.305 26.0933 198.071 25.636 197.605 25.356C197.138 25.0573 196.401 24.908 195.393 24.908H193.461V28.772H194.525ZM210.87 20.736H217.17L218.99 33.028L220.866 24.012H227.39L229.294 33.028L231.114 20.736H237.414L233.046 40H226.522L224.142 29.64L221.762 40H215.238L210.87 20.736ZM242.32 20.736H250.832L256.404 40H249.824L249.096 36.304H244.112L243.3 40H237L242.32 20.736ZM248.424 32.86L246.604 24.432L244.7 32.86H248.424ZM259.86 24.992H255.856V20.736H270.388V24.992H266.384V40H259.86V24.992ZM281.549 40.448C279.682 40.448 277.984 40.0093 276.453 39.132C274.941 38.236 273.737 37.0227 272.841 35.492C271.964 33.9427 271.525 32.2347 271.525 30.368C271.525 28.464 271.954 26.7467 272.813 25.216C273.672 23.6853 274.848 22.4907 276.341 21.632C277.834 20.7547 279.514 20.316 281.381 20.316C282.389 20.316 283.378 20.4373 284.349 20.68C285.32 20.9227 286.15 21.268 286.841 21.716L286.085 26.056C284.741 25.552 283.528 25.3 282.445 25.3C280.952 25.3 279.804 25.7387 279.001 26.616C278.198 27.4747 277.797 28.716 277.797 30.34C277.797 31.9267 278.217 33.168 279.057 34.064C279.916 34.9413 281.101 35.38 282.613 35.38C283.192 35.38 283.733 35.324 284.237 35.212C284.741 35.1 285.357 34.8947 286.085 34.596L286.869 39.02C285.245 39.972 283.472 40.448 281.549 40.448ZM289.376 20.736H295.676V28.408H301.64V20.736H307.968V40H301.64V32.44H295.676V40H289.376V20.736ZM311.606 20.736H318.074V40H311.606V20.736ZM321.723 20.736H327.351L335.023 31.124V20.736H340.035V40H334.435L326.707 29.976V40H321.723V20.736ZM352.64 40.448C350.755 40.448 349.056 40 347.544 39.104C346.032 38.1893 344.847 36.948 343.988 35.38C343.13 33.812 342.7 32.0853 342.7 30.2C342.7 28.3893 343.13 26.728 343.988 25.216C344.866 23.704 346.079 22.5093 347.628 21.632C349.178 20.7547 350.942 20.316 352.92 20.316C354.003 20.316 355.048 20.4373 356.056 20.68C357.083 20.9227 358.007 21.268 358.828 21.716L356.98 26.056C355.711 25.5333 354.526 25.272 353.424 25.272C351.987 25.272 350.876 25.7387 350.092 26.672C349.308 27.5867 348.916 28.7907 348.916 30.284C348.916 31.2547 349.094 32.132 349.448 32.916C349.803 33.6813 350.298 34.288 350.932 34.736C351.586 35.184 352.323 35.408 353.144 35.408C353.592 35.408 353.966 35.3707 354.264 35.296V30.788L359.108 30.228V38.992C356.999 39.9627 354.843 40.448 352.64 40.448Z" fill="black"/>
</svg>
